<mxfile host="app.diagrams.net" modified="2023-02-20T16:05:28.675Z" agent="5.0 (Macintosh; Intel Mac OS X 10_15_7) AppleWebKit/537.36 (KHTML, like Gecko) Chrome/109.0.0.0 Safari/537.36" etag="d5MbDUCRIIeVLoSzyirR" version="20.8.20" type="github">
  <diagram id="C5RBs43oDa-KdzZeNtuy" name="Page-1">
    <mxGraphModel dx="954" dy="530" grid="1" gridSize="10" guides="1" tooltips="1" connect="1" arrows="1" fold="1" page="1" pageScale="1" pageWidth="827" pageHeight="1169" math="0" shadow="0">
      <root>
        <mxCell id="WIyWlLk6GJQsqaUBKTNV-0" />
        <mxCell id="WIyWlLk6GJQsqaUBKTNV-1" parent="WIyWlLk6GJQsqaUBKTNV-0" />
        <mxCell id="WIyWlLk6GJQsqaUBKTNV-2" value="" style="rounded=0;html=1;jettySize=auto;orthogonalLoop=1;fontSize=11;endArrow=classic;endFill=1;endSize=8;strokeWidth=1;shadow=0;labelBackgroundColor=none;edgeStyle=orthogonalEdgeStyle;startArrow=none;" parent="WIyWlLk6GJQsqaUBKTNV-1" source="OmvuDLbbuwKiAppSM0HC-1" target="WIyWlLk6GJQsqaUBKTNV-6" edge="1">
          <mxGeometry relative="1" as="geometry" />
        </mxCell>
        <mxCell id="OmvuDLbbuwKiAppSM0HC-4" value="" style="edgeStyle=orthogonalEdgeStyle;rounded=0;orthogonalLoop=1;jettySize=auto;html=1;" edge="1" parent="WIyWlLk6GJQsqaUBKTNV-1" source="WIyWlLk6GJQsqaUBKTNV-3" target="OmvuDLbbuwKiAppSM0HC-1">
          <mxGeometry relative="1" as="geometry" />
        </mxCell>
        <mxCell id="WIyWlLk6GJQsqaUBKTNV-3" value="Start" style="rounded=1;whiteSpace=wrap;html=1;fontSize=12;glass=0;strokeWidth=1;shadow=0;fillColor=#d5e8d4;strokeColor=#82b366;" parent="WIyWlLk6GJQsqaUBKTNV-1" vertex="1">
          <mxGeometry x="280" y="10" width="120" height="40" as="geometry" />
        </mxCell>
        <mxCell id="WIyWlLk6GJQsqaUBKTNV-4" value="Yes" style="rounded=0;html=1;jettySize=auto;orthogonalLoop=1;fontSize=11;endArrow=classic;endFill=1;strokeWidth=1;shadow=0;labelBackgroundColor=none;edgeStyle=orthogonalEdgeStyle;" parent="WIyWlLk6GJQsqaUBKTNV-1" source="WIyWlLk6GJQsqaUBKTNV-6" target="WIyWlLk6GJQsqaUBKTNV-10" edge="1">
          <mxGeometry y="20" relative="1" as="geometry">
            <mxPoint as="offset" />
          </mxGeometry>
        </mxCell>
        <mxCell id="WIyWlLk6GJQsqaUBKTNV-5" value="No" style="edgeStyle=orthogonalEdgeStyle;rounded=0;html=1;jettySize=auto;orthogonalLoop=1;fontSize=11;endArrow=classic;endFill=1;endSize=8;strokeWidth=1;shadow=0;labelBackgroundColor=none;" parent="WIyWlLk6GJQsqaUBKTNV-1" source="WIyWlLk6GJQsqaUBKTNV-6" edge="1">
          <mxGeometry y="10" relative="1" as="geometry">
            <mxPoint as="offset" />
            <mxPoint x="490" y="230" as="targetPoint" />
            <Array as="points">
              <mxPoint x="470" y="230" />
              <mxPoint x="470" y="230" />
            </Array>
          </mxGeometry>
        </mxCell>
        <mxCell id="WIyWlLk6GJQsqaUBKTNV-6" value="path === absolute?" style="rhombus;whiteSpace=wrap;html=1;shadow=0;fontFamily=Helvetica;fontSize=12;align=center;strokeWidth=1;spacing=6;spacingTop=-4;fillColor=#ffe6cc;strokeColor=#d79b00;" parent="WIyWlLk6GJQsqaUBKTNV-1" vertex="1">
          <mxGeometry x="270" y="190" width="140" height="80" as="geometry" />
        </mxCell>
        <mxCell id="WIyWlLk6GJQsqaUBKTNV-10" value="path exists?" style="rhombus;whiteSpace=wrap;html=1;shadow=0;fontFamily=Helvetica;fontSize=12;align=center;strokeWidth=1;spacing=6;spacingTop=-4;fillColor=#ffe6cc;strokeColor=#d79b00;" parent="WIyWlLk6GJQsqaUBKTNV-1" vertex="1">
          <mxGeometry x="290" y="320" width="100" height="80" as="geometry" />
        </mxCell>
        <mxCell id="WIyWlLk6GJQsqaUBKTNV-11" value="End" style="rounded=1;whiteSpace=wrap;html=1;fontSize=12;glass=0;strokeWidth=1;shadow=0;fillColor=#d5e8d4;strokeColor=#82b366;" parent="WIyWlLk6GJQsqaUBKTNV-1" vertex="1">
          <mxGeometry x="690" y="940" width="120" height="40" as="geometry" />
        </mxCell>
        <mxCell id="OmvuDLbbuwKiAppSM0HC-1" value="mdLinks(path, options)" style="shape=parallelogram;perimeter=parallelogramPerimeter;whiteSpace=wrap;html=1;fixedSize=1;fillColor=#dae8fc;strokeColor=#6c8ebf;" vertex="1" parent="WIyWlLk6GJQsqaUBKTNV-1">
          <mxGeometry x="260" y="90" width="160" height="60" as="geometry" />
        </mxCell>
        <mxCell id="OmvuDLbbuwKiAppSM0HC-5" value="convert relative path to absolute" style="rounded=0;whiteSpace=wrap;html=1;fillColor=#e1d5e7;strokeColor=#9673a6;" vertex="1" parent="WIyWlLk6GJQsqaUBKTNV-1">
          <mxGeometry x="490" y="200" width="120" height="60" as="geometry" />
        </mxCell>
        <mxCell id="OmvuDLbbuwKiAppSM0HC-8" value="" style="endArrow=classic;html=1;rounded=0;exitX=0.5;exitY=1;exitDx=0;exitDy=0;entryX=1;entryY=0;entryDx=0;entryDy=0;" edge="1" parent="WIyWlLk6GJQsqaUBKTNV-1" source="OmvuDLbbuwKiAppSM0HC-5" target="WIyWlLk6GJQsqaUBKTNV-10">
          <mxGeometry width="50" height="50" relative="1" as="geometry">
            <mxPoint x="510" y="350" as="sourcePoint" />
            <mxPoint x="560" y="300" as="targetPoint" />
          </mxGeometry>
        </mxCell>
        <mxCell id="OmvuDLbbuwKiAppSM0HC-12" value="" style="rounded=0;html=1;jettySize=auto;orthogonalLoop=1;fontSize=11;endArrow=none;endFill=0;endSize=8;strokeWidth=1;shadow=0;labelBackgroundColor=none;edgeStyle=orthogonalEdgeStyle;" edge="1" parent="WIyWlLk6GJQsqaUBKTNV-1" source="WIyWlLk6GJQsqaUBKTNV-10" target="OmvuDLbbuwKiAppSM0HC-11">
          <mxGeometry x="0.3333" y="20" relative="1" as="geometry">
            <mxPoint as="offset" />
            <mxPoint x="340" y="400" as="sourcePoint" />
            <mxPoint x="340" y="690" as="targetPoint" />
          </mxGeometry>
        </mxCell>
        <mxCell id="OmvuDLbbuwKiAppSM0HC-15" style="edgeStyle=orthogonalEdgeStyle;rounded=0;orthogonalLoop=1;jettySize=auto;html=1;" edge="1" parent="WIyWlLk6GJQsqaUBKTNV-1" source="OmvuDLbbuwKiAppSM0HC-11">
          <mxGeometry relative="1" as="geometry">
            <mxPoint x="190" y="540" as="targetPoint" />
            <Array as="points">
              <mxPoint x="190" y="460" />
            </Array>
          </mxGeometry>
        </mxCell>
        <mxCell id="OmvuDLbbuwKiAppSM0HC-16" value="No" style="edgeLabel;html=1;align=center;verticalAlign=middle;resizable=0;points=[];" vertex="1" connectable="0" parent="OmvuDLbbuwKiAppSM0HC-15">
          <mxGeometry x="0.3143" y="-1" relative="1" as="geometry">
            <mxPoint as="offset" />
          </mxGeometry>
        </mxCell>
        <mxCell id="OmvuDLbbuwKiAppSM0HC-11" value="Is a directory?" style="rhombus;whiteSpace=wrap;html=1;fillColor=#ffe6cc;strokeColor=#d79b00;" vertex="1" parent="WIyWlLk6GJQsqaUBKTNV-1">
          <mxGeometry x="290" y="420" width="100" height="80" as="geometry" />
        </mxCell>
        <mxCell id="OmvuDLbbuwKiAppSM0HC-27" style="edgeStyle=orthogonalEdgeStyle;rounded=0;orthogonalLoop=1;jettySize=auto;html=1;exitX=1;exitY=1;exitDx=0;exitDy=0;entryX=0;entryY=0.5;entryDx=0;entryDy=0;" edge="1" parent="WIyWlLk6GJQsqaUBKTNV-1" target="OmvuDLbbuwKiAppSM0HC-66">
          <mxGeometry relative="1" as="geometry">
            <mxPoint x="215" y="600" as="sourcePoint" />
            <mxPoint x="540" y="595" as="targetPoint" />
          </mxGeometry>
        </mxCell>
        <mxCell id="OmvuDLbbuwKiAppSM0HC-28" value="No" style="edgeLabel;html=1;align=center;verticalAlign=middle;resizable=0;points=[];" vertex="1" connectable="0" parent="OmvuDLbbuwKiAppSM0HC-27">
          <mxGeometry x="-0.2" relative="1" as="geometry">
            <mxPoint y="1" as="offset" />
          </mxGeometry>
        </mxCell>
        <mxCell id="OmvuDLbbuwKiAppSM0HC-14" value="Is a .md file?" style="rhombus;whiteSpace=wrap;html=1;fillColor=#ffe6cc;strokeColor=#d79b00;" vertex="1" parent="WIyWlLk6GJQsqaUBKTNV-1">
          <mxGeometry x="140" y="540" width="100" height="80" as="geometry" />
        </mxCell>
        <mxCell id="OmvuDLbbuwKiAppSM0HC-17" value="directory.forEach(file)" style="rounded=0;whiteSpace=wrap;html=1;fillColor=#e1d5e7;strokeColor=#9673a6;" vertex="1" parent="WIyWlLk6GJQsqaUBKTNV-1">
          <mxGeometry x="280" y="515" width="120" height="60" as="geometry" />
        </mxCell>
        <mxCell id="OmvuDLbbuwKiAppSM0HC-19" value="" style="endArrow=classic;html=1;rounded=0;exitX=0.5;exitY=1;exitDx=0;exitDy=0;entryX=0.5;entryY=0;entryDx=0;entryDy=0;" edge="1" parent="WIyWlLk6GJQsqaUBKTNV-1" source="OmvuDLbbuwKiAppSM0HC-11" target="OmvuDLbbuwKiAppSM0HC-17">
          <mxGeometry width="50" height="50" relative="1" as="geometry">
            <mxPoint x="510" y="680" as="sourcePoint" />
            <mxPoint x="560" y="630" as="targetPoint" />
            <Array as="points" />
          </mxGeometry>
        </mxCell>
        <mxCell id="OmvuDLbbuwKiAppSM0HC-20" value="" style="endArrow=classic;html=1;rounded=0;entryX=1;entryY=0;entryDx=0;entryDy=0;exitX=0;exitY=0.5;exitDx=0;exitDy=0;" edge="1" parent="WIyWlLk6GJQsqaUBKTNV-1" source="OmvuDLbbuwKiAppSM0HC-17">
          <mxGeometry width="50" height="50" relative="1" as="geometry">
            <mxPoint x="210" y="660" as="sourcePoint" />
            <mxPoint x="215" y="560" as="targetPoint" />
          </mxGeometry>
        </mxCell>
        <mxCell id="OmvuDLbbuwKiAppSM0HC-29" style="edgeStyle=orthogonalEdgeStyle;rounded=0;orthogonalLoop=1;jettySize=auto;html=1;exitX=1;exitY=0.5;exitDx=0;exitDy=0;entryX=0.5;entryY=1;entryDx=0;entryDy=0;" edge="1" parent="WIyWlLk6GJQsqaUBKTNV-1" source="OmvuDLbbuwKiAppSM0HC-21" target="OmvuDLbbuwKiAppSM0HC-66">
          <mxGeometry relative="1" as="geometry">
            <mxPoint x="580" y="640" as="targetPoint" />
          </mxGeometry>
        </mxCell>
        <mxCell id="OmvuDLbbuwKiAppSM0HC-30" value="No" style="edgeLabel;html=1;align=center;verticalAlign=middle;resizable=0;points=[];" vertex="1" connectable="0" parent="OmvuDLbbuwKiAppSM0HC-29">
          <mxGeometry x="-0.5472" y="-1" relative="1" as="geometry">
            <mxPoint y="1" as="offset" />
          </mxGeometry>
        </mxCell>
        <mxCell id="OmvuDLbbuwKiAppSM0HC-32" style="edgeStyle=orthogonalEdgeStyle;rounded=0;orthogonalLoop=1;jettySize=auto;html=1;exitX=0.5;exitY=1;exitDx=0;exitDy=0;entryX=0.5;entryY=0;entryDx=0;entryDy=0;" edge="1" parent="WIyWlLk6GJQsqaUBKTNV-1" source="OmvuDLbbuwKiAppSM0HC-21" target="OmvuDLbbuwKiAppSM0HC-31">
          <mxGeometry relative="1" as="geometry">
            <mxPoint x="190" y="790" as="targetPoint" />
          </mxGeometry>
        </mxCell>
        <mxCell id="OmvuDLbbuwKiAppSM0HC-33" value="Yes" style="edgeLabel;html=1;align=center;verticalAlign=middle;resizable=0;points=[];" vertex="1" connectable="0" parent="OmvuDLbbuwKiAppSM0HC-32">
          <mxGeometry x="-0.425" y="1" relative="1" as="geometry">
            <mxPoint as="offset" />
          </mxGeometry>
        </mxCell>
        <mxCell id="OmvuDLbbuwKiAppSM0HC-21" value="It has links?" style="rhombus;whiteSpace=wrap;html=1;fillColor=#ffe6cc;strokeColor=#d79b00;" vertex="1" parent="WIyWlLk6GJQsqaUBKTNV-1">
          <mxGeometry x="150" y="670" width="80" height="80" as="geometry" />
        </mxCell>
        <mxCell id="OmvuDLbbuwKiAppSM0HC-22" value="" style="endArrow=classic;html=1;rounded=0;entryX=0.5;entryY=0;entryDx=0;entryDy=0;exitX=0.5;exitY=1;exitDx=0;exitDy=0;" edge="1" parent="WIyWlLk6GJQsqaUBKTNV-1" target="OmvuDLbbuwKiAppSM0HC-21">
          <mxGeometry width="50" height="50" relative="1" as="geometry">
            <mxPoint x="190" y="620" as="sourcePoint" />
            <mxPoint x="240" y="590" as="targetPoint" />
          </mxGeometry>
        </mxCell>
        <mxCell id="OmvuDLbbuwKiAppSM0HC-23" value="Yes" style="edgeLabel;html=1;align=center;verticalAlign=middle;resizable=0;points=[];" vertex="1" connectable="0" parent="OmvuDLbbuwKiAppSM0HC-22">
          <mxGeometry x="-0.225" relative="1" as="geometry">
            <mxPoint as="offset" />
          </mxGeometry>
        </mxCell>
        <mxCell id="OmvuDLbbuwKiAppSM0HC-25" value="" style="endArrow=classic;html=1;rounded=0;exitX=1;exitY=0.5;exitDx=0;exitDy=0;entryX=0.5;entryY=0;entryDx=0;entryDy=0;" edge="1" parent="WIyWlLk6GJQsqaUBKTNV-1" source="WIyWlLk6GJQsqaUBKTNV-10" target="OmvuDLbbuwKiAppSM0HC-66">
          <mxGeometry width="50" height="50" relative="1" as="geometry">
            <mxPoint x="490" y="470" as="sourcePoint" />
            <mxPoint x="572.2553191489362" y="580" as="targetPoint" />
            <Array as="points">
              <mxPoint x="488" y="360" />
            </Array>
          </mxGeometry>
        </mxCell>
        <mxCell id="OmvuDLbbuwKiAppSM0HC-26" value="No" style="edgeLabel;html=1;align=center;verticalAlign=middle;resizable=0;points=[];" vertex="1" connectable="0" parent="OmvuDLbbuwKiAppSM0HC-25">
          <mxGeometry x="-0.0544" y="1" relative="1" as="geometry">
            <mxPoint y="-1" as="offset" />
          </mxGeometry>
        </mxCell>
        <mxCell id="OmvuDLbbuwKiAppSM0HC-35" style="edgeStyle=orthogonalEdgeStyle;rounded=0;orthogonalLoop=1;jettySize=auto;html=1;exitX=1;exitY=0.5;exitDx=0;exitDy=0;entryX=0;entryY=0.5;entryDx=0;entryDy=0;" edge="1" parent="WIyWlLk6GJQsqaUBKTNV-1" target="OmvuDLbbuwKiAppSM0HC-34">
          <mxGeometry relative="1" as="geometry">
            <mxPoint x="250" y="805" as="sourcePoint" />
          </mxGeometry>
        </mxCell>
        <mxCell id="OmvuDLbbuwKiAppSM0HC-31" value="array[links]" style="rounded=0;whiteSpace=wrap;html=1;fillColor=#e1d5e7;strokeColor=#9673a6;" vertex="1" parent="WIyWlLk6GJQsqaUBKTNV-1">
          <mxGeometry x="130" y="795" width="120" height="30" as="geometry" />
        </mxCell>
        <mxCell id="OmvuDLbbuwKiAppSM0HC-37" value="No" style="edgeStyle=orthogonalEdgeStyle;rounded=0;orthogonalLoop=1;jettySize=auto;html=1;exitX=1;exitY=0.5;exitDx=0;exitDy=0;" edge="1" parent="WIyWlLk6GJQsqaUBKTNV-1" source="OmvuDLbbuwKiAppSM0HC-34" target="OmvuDLbbuwKiAppSM0HC-38">
          <mxGeometry relative="1" as="geometry">
            <mxPoint x="460" y="810" as="targetPoint" />
          </mxGeometry>
        </mxCell>
        <mxCell id="OmvuDLbbuwKiAppSM0HC-45" value="YES" style="edgeStyle=orthogonalEdgeStyle;rounded=0;orthogonalLoop=1;jettySize=auto;html=1;exitX=0.5;exitY=1;exitDx=0;exitDy=0;fontSize=10;entryX=0.5;entryY=0;entryDx=0;entryDy=0;" edge="1" parent="WIyWlLk6GJQsqaUBKTNV-1" source="OmvuDLbbuwKiAppSM0HC-34" target="OmvuDLbbuwKiAppSM0HC-43">
          <mxGeometry relative="1" as="geometry">
            <mxPoint x="350" y="870" as="targetPoint" />
            <Array as="points" />
          </mxGeometry>
        </mxCell>
        <mxCell id="OmvuDLbbuwKiAppSM0HC-34" value="validate == true?" style="rhombus;whiteSpace=wrap;html=1;fillColor=#ffe6cc;strokeColor=#d79b00;" vertex="1" parent="WIyWlLk6GJQsqaUBKTNV-1">
          <mxGeometry x="290" y="765" width="120" height="75" as="geometry" />
        </mxCell>
        <mxCell id="OmvuDLbbuwKiAppSM0HC-57" style="edgeStyle=orthogonalEdgeStyle;rounded=0;orthogonalLoop=1;jettySize=auto;html=1;exitX=1;exitY=0.5;exitDx=0;exitDy=0;fontSize=10;" edge="1" parent="WIyWlLk6GJQsqaUBKTNV-1" source="OmvuDLbbuwKiAppSM0HC-38" target="WIyWlLk6GJQsqaUBKTNV-11">
          <mxGeometry relative="1" as="geometry" />
        </mxCell>
        <mxCell id="OmvuDLbbuwKiAppSM0HC-38" value="&lt;p style=&quot;border-color: var(--border-color); box-sizing: border-box; margin-top: 0px; margin-bottom: 16px; text-align: start; background-color: rgb(255, 255, 255); line-height: 0px;&quot; dir=&quot;auto&quot;&gt;&lt;font style=&quot;border-color: var(--border-color);&quot; face=&quot;-apple-system, system-ui, Segoe UI, Noto Sans, Helvetica, Arial, sans-serif, Apple Color Emoji, Segoe UI Emoji&quot; color=&quot;#24292f&quot;&gt;validate == false&lt;/font&gt;&lt;/p&gt;&lt;p style=&quot;border-color: var(--border-color); box-sizing: border-box; margin-top: 0px; margin-bottom: 16px; text-align: start; background-color: rgb(255, 255, 255); line-height: 0px;&quot; dir=&quot;auto&quot;&gt;&lt;font style=&quot;border-color: var(--border-color);&quot; face=&quot;-apple-system, system-ui, Segoe UI, Noto Sans, Helvetica, Arial, sans-serif, Apple Color Emoji, Segoe UI Emoji&quot; color=&quot;#24292f&quot;&gt;href&lt;/font&gt;&lt;/p&gt;&lt;p style=&quot;border-color: var(--border-color); box-sizing: border-box; margin-top: 0px; margin-bottom: 16px; text-align: start; background-color: rgb(255, 255, 255); line-height: 0px;&quot; dir=&quot;auto&quot;&gt;&lt;font style=&quot;border-color: var(--border-color);&quot; face=&quot;-apple-system, system-ui, Segoe UI, Noto Sans, Helvetica, Arial, sans-serif, Apple Color Emoji, Segoe UI Emoji&quot; color=&quot;#24292f&quot;&gt;text&lt;/font&gt;&lt;/p&gt;&lt;p style=&quot;border-color: var(--border-color); box-sizing: border-box; margin-top: 0px; margin-bottom: 16px; text-align: start; background-color: rgb(255, 255, 255); line-height: 0px;&quot; dir=&quot;auto&quot;&gt;&lt;font style=&quot;border-color: var(--border-color);&quot; face=&quot;-apple-system, system-ui, Segoe UI, Noto Sans, Helvetica, Arial, sans-serif, Apple Color Emoji, Segoe UI Emoji&quot; color=&quot;#24292f&quot;&gt;file&lt;/font&gt;&lt;/p&gt;" style="rounded=0;whiteSpace=wrap;html=1;fontSize=11;fillColor=#e1d5e7;strokeColor=#9673a6;" vertex="1" parent="WIyWlLk6GJQsqaUBKTNV-1">
          <mxGeometry x="474" y="770" width="120" height="80" as="geometry" />
        </mxCell>
        <mxCell id="OmvuDLbbuwKiAppSM0HC-58" style="edgeStyle=orthogonalEdgeStyle;rounded=0;orthogonalLoop=1;jettySize=auto;html=1;entryX=0.658;entryY=1.038;entryDx=0;entryDy=0;entryPerimeter=0;fontSize=10;" edge="1" parent="WIyWlLk6GJQsqaUBKTNV-1" source="OmvuDLbbuwKiAppSM0HC-39" target="WIyWlLk6GJQsqaUBKTNV-11">
          <mxGeometry relative="1" as="geometry">
            <Array as="points">
              <mxPoint x="769" y="1130" />
            </Array>
          </mxGeometry>
        </mxCell>
        <mxCell id="OmvuDLbbuwKiAppSM0HC-39" value="&lt;p style=&quot;border-color: var(--border-color); box-sizing: border-box; margin-top: 0px; margin-bottom: 16px; text-align: start; background-color: rgb(255, 255, 255); line-height: 0px;&quot; dir=&quot;auto&quot;&gt;&lt;font style=&quot;border-color: var(--border-color);&quot; face=&quot;-apple-system, system-ui, Segoe UI, Noto Sans, Helvetica, Arial, sans-serif, Apple Color Emoji, Segoe UI Emoji&quot; color=&quot;#24292f&quot;&gt;href&lt;/font&gt;&lt;/p&gt;&lt;p style=&quot;border-color: var(--border-color); box-sizing: border-box; margin-top: 0px; margin-bottom: 16px; text-align: start; background-color: rgb(255, 255, 255); line-height: 0px;&quot; dir=&quot;auto&quot;&gt;&lt;font style=&quot;border-color: var(--border-color);&quot; face=&quot;-apple-system, system-ui, Segoe UI, Noto Sans, Helvetica, Arial, sans-serif, Apple Color Emoji, Segoe UI Emoji&quot; color=&quot;#24292f&quot;&gt;text&lt;/font&gt;&lt;/p&gt;&lt;p style=&quot;border-color: var(--border-color); box-sizing: border-box; margin-top: 0px; margin-bottom: 16px; text-align: start; background-color: rgb(255, 255, 255); line-height: 0px;&quot; dir=&quot;auto&quot;&gt;&lt;font style=&quot;border-color: var(--border-color);&quot; face=&quot;-apple-system, system-ui, Segoe UI, Noto Sans, Helvetica, Arial, sans-serif, Apple Color Emoji, Segoe UI Emoji&quot; color=&quot;#24292f&quot;&gt;file&lt;/font&gt;&lt;/p&gt;&lt;p style=&quot;border-color: var(--border-color); box-sizing: border-box; margin-top: 0px; margin-bottom: 16px; text-align: start; background-color: rgb(255, 255, 255); line-height: 0px;&quot; dir=&quot;auto&quot;&gt;&lt;font style=&quot;border-color: var(--border-color);&quot; face=&quot;-apple-system, system-ui, Segoe UI, Noto Sans, Helvetica, Arial, sans-serif, Apple Color Emoji, Segoe UI Emoji&quot; color=&quot;#24292f&quot;&gt;status&lt;/font&gt;&lt;/p&gt;&lt;p style=&quot;border-color: var(--border-color); box-sizing: border-box; margin-top: 0px; margin-bottom: 16px; text-align: start; background-color: rgb(255, 255, 255); line-height: 0px;&quot; dir=&quot;auto&quot;&gt;&lt;font style=&quot;border-color: var(--border-color);&quot; face=&quot;-apple-system, system-ui, Segoe UI, Noto Sans, Helvetica, Arial, sans-serif, Apple Color Emoji, Segoe UI Emoji&quot; color=&quot;#24292f&quot;&gt;ok&lt;/font&gt;&lt;/p&gt;" style="rounded=0;whiteSpace=wrap;html=1;fontSize=11;fillColor=#e1d5e7;strokeColor=#9673a6;" vertex="1" parent="WIyWlLk6GJQsqaUBKTNV-1">
          <mxGeometry x="20" y="1030" width="120" height="120" as="geometry" />
        </mxCell>
        <mxCell id="OmvuDLbbuwKiAppSM0HC-51" style="edgeStyle=orthogonalEdgeStyle;rounded=0;orthogonalLoop=1;jettySize=auto;html=1;fontSize=10;" edge="1" parent="WIyWlLk6GJQsqaUBKTNV-1" source="OmvuDLbbuwKiAppSM0HC-41" target="OmvuDLbbuwKiAppSM0HC-50">
          <mxGeometry relative="1" as="geometry" />
        </mxCell>
        <mxCell id="OmvuDLbbuwKiAppSM0HC-41" value="--validate" style="rounded=0;whiteSpace=wrap;html=1;fontSize=10;fillColor=#e1d5e7;strokeColor=#9673a6;" vertex="1" parent="WIyWlLk6GJQsqaUBKTNV-1">
          <mxGeometry x="130" y="890" width="60" height="30" as="geometry" />
        </mxCell>
        <mxCell id="OmvuDLbbuwKiAppSM0HC-61" style="edgeStyle=orthogonalEdgeStyle;rounded=0;orthogonalLoop=1;jettySize=auto;html=1;exitX=0.5;exitY=1;exitDx=0;exitDy=0;entryX=0.333;entryY=0;entryDx=0;entryDy=0;entryPerimeter=0;fontSize=10;" edge="1" parent="WIyWlLk6GJQsqaUBKTNV-1" source="OmvuDLbbuwKiAppSM0HC-43" target="OmvuDLbbuwKiAppSM0HC-60">
          <mxGeometry relative="1" as="geometry" />
        </mxCell>
        <mxCell id="OmvuDLbbuwKiAppSM0HC-43" value="--stats" style="rounded=0;whiteSpace=wrap;html=1;fontSize=10;fillColor=#e1d5e7;strokeColor=#9673a6;" vertex="1" parent="WIyWlLk6GJQsqaUBKTNV-1">
          <mxGeometry x="320" y="890" width="60" height="30" as="geometry" />
        </mxCell>
        <mxCell id="OmvuDLbbuwKiAppSM0HC-64" style="edgeStyle=orthogonalEdgeStyle;rounded=0;orthogonalLoop=1;jettySize=auto;html=1;exitX=0.5;exitY=1;exitDx=0;exitDy=0;entryX=0.25;entryY=0;entryDx=0;entryDy=0;fontSize=10;" edge="1" parent="WIyWlLk6GJQsqaUBKTNV-1" source="OmvuDLbbuwKiAppSM0HC-44" target="OmvuDLbbuwKiAppSM0HC-63">
          <mxGeometry relative="1" as="geometry" />
        </mxCell>
        <mxCell id="OmvuDLbbuwKiAppSM0HC-44" value="--validate --stats" style="rounded=0;whiteSpace=wrap;html=1;fontSize=10;fillColor=#e1d5e7;strokeColor=#9673a6;" vertex="1" parent="WIyWlLk6GJQsqaUBKTNV-1">
          <mxGeometry x="450" y="890" width="100" height="30" as="geometry" />
        </mxCell>
        <mxCell id="OmvuDLbbuwKiAppSM0HC-47" value="" style="endArrow=classic;html=1;rounded=0;fontSize=10;entryX=0.5;entryY=0;entryDx=0;entryDy=0;" edge="1" parent="WIyWlLk6GJQsqaUBKTNV-1" target="OmvuDLbbuwKiAppSM0HC-44">
          <mxGeometry width="50" height="50" relative="1" as="geometry">
            <mxPoint x="350" y="860" as="sourcePoint" />
            <mxPoint x="460" y="820" as="targetPoint" />
            <Array as="points">
              <mxPoint x="450" y="860" />
            </Array>
          </mxGeometry>
        </mxCell>
        <mxCell id="OmvuDLbbuwKiAppSM0HC-48" value="" style="endArrow=classic;html=1;rounded=0;fontSize=10;entryX=0.5;entryY=0;entryDx=0;entryDy=0;" edge="1" parent="WIyWlLk6GJQsqaUBKTNV-1" target="OmvuDLbbuwKiAppSM0HC-41">
          <mxGeometry width="50" height="50" relative="1" as="geometry">
            <mxPoint x="350" y="860" as="sourcePoint" />
            <mxPoint x="160" y="880" as="targetPoint" />
            <Array as="points">
              <mxPoint x="160" y="860" />
            </Array>
          </mxGeometry>
        </mxCell>
        <mxCell id="OmvuDLbbuwKiAppSM0HC-55" style="edgeStyle=orthogonalEdgeStyle;rounded=0;orthogonalLoop=1;jettySize=auto;html=1;exitX=1;exitY=0.5;exitDx=0;exitDy=0;fontSize=10;" edge="1" parent="WIyWlLk6GJQsqaUBKTNV-1" source="OmvuDLbbuwKiAppSM0HC-50" target="OmvuDLbbuwKiAppSM0HC-54">
          <mxGeometry relative="1" as="geometry" />
        </mxCell>
        <mxCell id="OmvuDLbbuwKiAppSM0HC-56" value="No" style="edgeLabel;html=1;align=center;verticalAlign=middle;resizable=0;points=[];fontSize=10;" vertex="1" connectable="0" parent="OmvuDLbbuwKiAppSM0HC-55">
          <mxGeometry x="-0.6" y="-1" relative="1" as="geometry">
            <mxPoint y="1" as="offset" />
          </mxGeometry>
        </mxCell>
        <mxCell id="OmvuDLbbuwKiAppSM0HC-50" value="link == ok?" style="rhombus;whiteSpace=wrap;html=1;fontSize=10;fillColor=#ffe6cc;strokeColor=#d79b00;" vertex="1" parent="WIyWlLk6GJQsqaUBKTNV-1">
          <mxGeometry x="40" y="940" width="80" height="50" as="geometry" />
        </mxCell>
        <mxCell id="OmvuDLbbuwKiAppSM0HC-52" value="" style="endArrow=classic;html=1;rounded=0;fontSize=10;exitX=0.5;exitY=1;exitDx=0;exitDy=0;entryX=0.5;entryY=0;entryDx=0;entryDy=0;" edge="1" parent="WIyWlLk6GJQsqaUBKTNV-1" source="OmvuDLbbuwKiAppSM0HC-50" target="OmvuDLbbuwKiAppSM0HC-39">
          <mxGeometry width="50" height="50" relative="1" as="geometry">
            <mxPoint x="140" y="1010" as="sourcePoint" />
            <mxPoint x="190" y="960" as="targetPoint" />
          </mxGeometry>
        </mxCell>
        <mxCell id="OmvuDLbbuwKiAppSM0HC-53" value="Yes" style="edgeLabel;html=1;align=center;verticalAlign=middle;resizable=0;points=[];fontSize=10;" vertex="1" connectable="0" parent="OmvuDLbbuwKiAppSM0HC-52">
          <mxGeometry x="-0.3176" y="1" relative="1" as="geometry">
            <mxPoint as="offset" />
          </mxGeometry>
        </mxCell>
        <mxCell id="OmvuDLbbuwKiAppSM0HC-59" style="edgeStyle=orthogonalEdgeStyle;rounded=0;orthogonalLoop=1;jettySize=auto;html=1;entryX=0.375;entryY=0.988;entryDx=0;entryDy=0;entryPerimeter=0;fontSize=10;" edge="1" parent="WIyWlLk6GJQsqaUBKTNV-1" source="OmvuDLbbuwKiAppSM0HC-54" target="WIyWlLk6GJQsqaUBKTNV-11">
          <mxGeometry relative="1" as="geometry">
            <Array as="points">
              <mxPoint x="735" y="1080" />
            </Array>
          </mxGeometry>
        </mxCell>
        <mxCell id="OmvuDLbbuwKiAppSM0HC-54" value="&lt;p style=&quot;border-color: var(--border-color); box-sizing: border-box; margin-top: 0px; margin-bottom: 16px; text-align: start; background-color: rgb(255, 255, 255); line-height: 0px;&quot; dir=&quot;auto&quot;&gt;&lt;font style=&quot;border-color: var(--border-color);&quot; face=&quot;-apple-system, system-ui, Segoe UI, Noto Sans, Helvetica, Arial, sans-serif, Apple Color Emoji, Segoe UI Emoji&quot; color=&quot;#24292f&quot;&gt;href&lt;/font&gt;&lt;/p&gt;&lt;p style=&quot;border-color: var(--border-color); box-sizing: border-box; margin-top: 0px; margin-bottom: 16px; text-align: start; background-color: rgb(255, 255, 255); line-height: 0px;&quot; dir=&quot;auto&quot;&gt;&lt;font style=&quot;border-color: var(--border-color);&quot; face=&quot;-apple-system, system-ui, Segoe UI, Noto Sans, Helvetica, Arial, sans-serif, Apple Color Emoji, Segoe UI Emoji&quot; color=&quot;#24292f&quot;&gt;text&lt;/font&gt;&lt;/p&gt;&lt;p style=&quot;border-color: var(--border-color); box-sizing: border-box; margin-top: 0px; margin-bottom: 16px; text-align: start; background-color: rgb(255, 255, 255); line-height: 0px;&quot; dir=&quot;auto&quot;&gt;&lt;font style=&quot;border-color: var(--border-color);&quot; face=&quot;-apple-system, system-ui, Segoe UI, Noto Sans, Helvetica, Arial, sans-serif, Apple Color Emoji, Segoe UI Emoji&quot; color=&quot;#24292f&quot;&gt;file&lt;/font&gt;&lt;/p&gt;&lt;p style=&quot;border-color: var(--border-color); box-sizing: border-box; margin-top: 0px; margin-bottom: 16px; text-align: start; background-color: rgb(255, 255, 255); line-height: 0px;&quot; dir=&quot;auto&quot;&gt;&lt;font style=&quot;border-color: var(--border-color);&quot; face=&quot;-apple-system, system-ui, Segoe UI, Noto Sans, Helvetica, Arial, sans-serif, Apple Color Emoji, Segoe UI Emoji&quot; color=&quot;#24292f&quot;&gt;status&lt;/font&gt;&lt;/p&gt;&lt;p style=&quot;border-color: var(--border-color); box-sizing: border-box; margin-top: 0px; margin-bottom: 16px; text-align: start; background-color: rgb(255, 255, 255); line-height: 0px;&quot; dir=&quot;auto&quot;&gt;&lt;font face=&quot;-apple-system, system-ui, Segoe UI, Noto Sans, Helvetica, Arial, sans-serif, Apple Color Emoji, Segoe UI Emoji&quot; color=&quot;#24292f&quot;&gt;fail&lt;/font&gt;&lt;/p&gt;" style="rounded=0;whiteSpace=wrap;html=1;fontSize=11;fillColor=#e1d5e7;strokeColor=#9673a6;" vertex="1" parent="WIyWlLk6GJQsqaUBKTNV-1">
          <mxGeometry x="190" y="980" width="120" height="120" as="geometry" />
        </mxCell>
        <mxCell id="OmvuDLbbuwKiAppSM0HC-62" style="edgeStyle=orthogonalEdgeStyle;rounded=0;orthogonalLoop=1;jettySize=auto;html=1;entryX=0.108;entryY=1.038;entryDx=0;entryDy=0;entryPerimeter=0;fontSize=10;" edge="1" parent="WIyWlLk6GJQsqaUBKTNV-1" source="OmvuDLbbuwKiAppSM0HC-60" target="WIyWlLk6GJQsqaUBKTNV-11">
          <mxGeometry relative="1" as="geometry" />
        </mxCell>
        <mxCell id="OmvuDLbbuwKiAppSM0HC-60" value="total(href)&lt;br&gt;unique(href)" style="rounded=0;whiteSpace=wrap;html=1;fontSize=10;fillColor=#e1d5e7;strokeColor=#9673a6;" vertex="1" parent="WIyWlLk6GJQsqaUBKTNV-1">
          <mxGeometry x="340" y="990" width="90" height="40" as="geometry" />
        </mxCell>
        <mxCell id="OmvuDLbbuwKiAppSM0HC-65" style="edgeStyle=orthogonalEdgeStyle;rounded=0;orthogonalLoop=1;jettySize=auto;html=1;entryX=0;entryY=0.75;entryDx=0;entryDy=0;fontSize=10;" edge="1" parent="WIyWlLk6GJQsqaUBKTNV-1" source="OmvuDLbbuwKiAppSM0HC-63" target="WIyWlLk6GJQsqaUBKTNV-11">
          <mxGeometry relative="1" as="geometry" />
        </mxCell>
        <mxCell id="OmvuDLbbuwKiAppSM0HC-63" value="total(href)&lt;br&gt;unique(href)&lt;br&gt;broken(href)" style="rounded=0;whiteSpace=wrap;html=1;fontSize=10;fillColor=#e1d5e7;strokeColor=#9673a6;" vertex="1" parent="WIyWlLk6GJQsqaUBKTNV-1">
          <mxGeometry x="474" y="950" width="90" height="40" as="geometry" />
        </mxCell>
        <mxCell id="OmvuDLbbuwKiAppSM0HC-67" style="edgeStyle=orthogonalEdgeStyle;rounded=0;orthogonalLoop=1;jettySize=auto;html=1;entryX=0.75;entryY=0;entryDx=0;entryDy=0;fontSize=10;endArrow=classic;endFill=1;" edge="1" parent="WIyWlLk6GJQsqaUBKTNV-1" source="OmvuDLbbuwKiAppSM0HC-66" target="WIyWlLk6GJQsqaUBKTNV-11">
          <mxGeometry relative="1" as="geometry" />
        </mxCell>
        <mxCell id="OmvuDLbbuwKiAppSM0HC-66" value="Error" style="shape=parallelogram;perimeter=parallelogramPerimeter;whiteSpace=wrap;html=1;fixedSize=1;fontSize=10;fillColor=#dae8fc;strokeColor=#6c8ebf;" vertex="1" parent="WIyWlLk6GJQsqaUBKTNV-1">
          <mxGeometry x="494" y="585" width="66" height="30" as="geometry" />
        </mxCell>
      </root>
    </mxGraphModel>
  </diagram>
</mxfile>
